<svg width="215" height="48" viewBox="0 0 215 48" fill="none" xmlns="http://www.w3.org/2000/svg">
<path fill-rule="evenodd" clip-rule="evenodd" d="M130.732 1.89358C135.969 1.89359 140.275 4.07343 143.257 8.07292C146.228 12.058 147.862 17.8142 147.862 24.9467C147.862 31.8847 146.356 37.6399 143.442 41.6731C140.514 45.7244 136.19 48 130.669 48C125.21 48 120.887 45.7234 117.945 41.674C115.014 37.6415 113.476 31.8866 113.476 24.9467C113.476 17.8747 115.143 12.1189 118.145 8.11914C121.158 4.10628 125.493 1.89358 130.732 1.89358ZM130.732 7.35122C127.091 7.35122 124.404 8.98219 122.603 11.9675C120.785 14.9822 119.861 19.3992 119.861 24.9467C119.861 30.3983 120.784 34.8003 122.603 37.8238C124.406 40.8193 127.094 42.4792 130.732 42.4792C134.407 42.4792 137.06 40.8628 138.82 37.8972C140.6 34.899 141.478 30.4979 141.478 24.9467C141.478 19.4954 140.554 15.0762 138.749 12.0357C136.96 9.02232 134.303 7.35124 130.732 7.35122ZM119.603 20.7286C119.597 20.7799 119.593 20.8314 119.588 20.883C119.6 20.753 119.613 20.6238 119.627 20.4954L119.603 20.7286ZM119.903 18.4741C119.891 18.5464 119.879 18.6189 119.867 18.6917L119.903 18.4741C119.915 18.4019 119.928 18.33 119.941 18.2583L119.903 18.4741ZM120.195 17.001C120.187 17.0383 120.178 17.0757 120.17 17.1132C120.194 17.0074 120.218 16.9022 120.242 16.7978L120.195 17.001ZM120.341 16.3969C120.324 16.4631 120.307 16.5296 120.291 16.5965L120.341 16.3969C120.358 16.3307 120.375 16.2648 120.392 16.1992L120.341 16.3969ZM121.186 13.8005C121.162 13.8578 121.139 13.9155 121.117 13.9735C121.162 13.8575 121.209 13.7428 121.257 13.6294L121.186 13.8005ZM128.059 7.21211C128.047 7.21517 128.035 7.21838 128.023 7.22148C128.04 7.2171 128.057 7.21269 128.074 7.2084L128.059 7.21211Z" fill="#00FF48"/>
<path fill-rule="evenodd" clip-rule="evenodd" d="M195.913 0C201.256 7.12677e-06 205.58 1.54173 208.726 4.17728C211.873 6.81302 213.81 10.517 214.423 14.7827L214.497 15.3042H208.058L207.987 14.9334C207.472 12.2242 206.142 9.95885 204.097 8.36794C202.051 6.7758 199.26 5.83649 195.787 5.83648C190.984 5.83648 187.262 7.77889 184.731 10.9963C182.191 14.2255 180.825 18.7724 180.825 24C180.825 29.4418 182.329 33.9538 184.944 37.0966C187.552 40.2317 191.292 42.0373 195.85 42.0373C199.985 42.0373 202.991 40.6281 205.036 38.449C207.088 36.2611 208.208 33.2582 208.484 30.0205L208.52 29.6028H215L214.993 30.0658C214.93 34.595 212.809 39.6702 209.599 42.919L209.445 43.0723C206.192 46.2701 201.472 47.9368 195.661 47.9368C189.151 47.9368 183.754 45.4399 179.99 41.1792C176.231 36.9236 174.126 30.9395 174.126 24C174.126 17.2839 176.135 11.2852 179.877 6.95842C183.625 2.62455 189.086 0 195.913 0ZM199.508 42.0876L199.674 42.047C199.688 42.0437 199.701 42.0401 199.714 42.0367C199.646 42.0541 199.577 42.0712 199.508 42.0876ZM207.157 36.2719C207.11 36.358 207.063 36.4435 207.014 36.5284L207.086 36.4006C207.11 36.3579 207.134 36.3149 207.157 36.2719ZM208.791 31.2912L208.814 31.1385C208.817 31.1165 208.82 31.0945 208.823 31.0724C208.813 31.1455 208.802 31.2184 208.791 31.2912ZM180.375 24.5151C180.378 24.7332 180.385 24.9499 180.393 25.165C180.385 24.9486 180.378 24.7306 180.375 24.5111V24.5151ZM184.875 10.1095C184.792 10.205 184.709 10.3016 184.628 10.3996C184.668 10.3508 184.709 10.3023 184.75 10.2541C184.792 10.2056 184.833 10.1574 184.875 10.1095ZM185.552 9.38926C185.438 9.50205 185.326 9.61697 185.216 9.73391C185.33 9.61273 185.446 9.4938 185.564 9.37707L185.552 9.38926ZM204.517 8.11914C204.503 8.10803 204.49 8.09676 204.476 8.0857L204.474 8.08452C204.489 8.09598 204.503 8.10761 204.517 8.11914ZM190.126 6.39886C190.063 6.4234 190.001 6.44838 189.939 6.47377L190.126 6.39886C190.188 6.37433 190.251 6.35032 190.314 6.32663L190.126 6.39886ZM194.873 5.4031C194.856 5.40398 194.839 5.405 194.822 5.40593C194.855 5.40416 194.887 5.40261 194.919 5.40102L194.873 5.4031Z" fill="#00FF48"/>
<path fill-rule="evenodd" clip-rule="evenodd" d="M61.8721 13.9532C66.7771 13.9532 70.9958 17.5195 73.6255 21.4891C74.947 23.4839 75.8921 25.6151 76.335 27.5168C76.7717 29.3917 76.7444 31.1535 75.9653 32.3098C75.2174 33.4199 74.2098 33.9669 73.0334 34.12C71.8835 34.2697 70.5848 34.0421 69.2182 33.6531C67.8481 33.263 66.3559 32.6937 64.8195 32.1258C63.2743 31.5548 61.6734 30.9809 60.0512 30.5632C56.8448 29.7377 54.9526 30.2245 53.8817 30.8467C53.341 31.1608 52.9914 31.5197 52.7793 31.7937C52.6732 31.9308 52.6013 32.0468 52.5575 32.1251C52.5533 32.1327 52.5494 32.1399 52.5457 32.1468C52.7396 35.2098 53.6647 37.8663 55.2561 39.7556C56.8585 41.6578 59.1616 42.8148 62.1743 42.8148C64.3678 42.8148 66.1545 42.2871 67.5162 41.2818C68.8752 40.2784 69.8514 38.7694 70.3739 36.7305L70.4618 36.3877H76.1522L76.033 36.9407C75.2888 40.3948 73.6528 43.1317 71.269 45.0028C68.8865 46.8728 65.7915 47.8511 62.1743 47.8511C57.2742 47.8511 53.3704 45.9482 50.6976 42.8582C48.0309 39.7753 46.6135 35.5401 46.6135 30.9021C46.6135 21.6166 52.6813 13.9533 61.8721 13.9532ZM61.6703 47.3872C61.7636 47.3898 61.8572 47.392 61.9513 47.3932L61.7298 47.389C61.7099 47.3885 61.6901 47.3878 61.6703 47.3872ZM66.488 46.8556C66.3934 46.8811 66.2982 46.9057 66.2024 46.9293L66.3456 46.8932C66.3933 46.8809 66.4407 46.8683 66.488 46.8556ZM58.6985 42.699C58.7263 42.7089 58.7542 42.7184 58.7821 42.7281C58.7139 42.7045 58.6462 42.6803 58.5791 42.6552L58.6985 42.699ZM57.0179 41.888C57.0525 41.9096 57.0874 41.9309 57.1225 41.952L57.0179 41.888C56.9832 41.8664 56.9486 41.8445 56.9143 41.8224L57.0179 41.888ZM67.849 41.6022C67.7829 41.6521 67.7159 41.701 67.648 41.7487C67.6017 41.7813 67.5549 41.8135 67.5077 41.845C67.4765 41.8659 67.4451 41.8864 67.4135 41.9069C67.5628 41.8104 67.7079 41.7088 67.849 41.6022ZM60.6536 30.252C60.5933 30.2354 60.5331 30.2185 60.4727 30.2022L60.4703 30.2016C60.5315 30.2181 60.5925 30.2351 60.6536 30.252ZM71.2762 29.3798C71.31 29.369 71.3434 29.3578 71.3765 29.3459L71.378 29.3453C71.3444 29.3574 71.3105 29.3688 71.2762 29.3798ZM71.5309 29.2839L71.5471 29.2768C71.5533 29.2737 71.5591 29.27 71.5652 29.2668C71.554 29.2727 71.5425 29.2783 71.5309 29.2839ZM61.8721 18.7469C59.0986 18.7469 56.9877 19.785 55.475 21.4892C54.1052 23.0324 53.2062 25.1455 52.7811 27.5834C52.8053 27.5729 52.8298 27.5621 52.8549 27.5513C53.3885 27.3222 54.1405 27.0285 55.0154 26.7698C56.7488 26.2572 59.0348 25.8604 61.0643 26.4484C62.0662 26.7387 63.0796 27.099 64.0643 27.4566C65.0539 27.816 66.0107 28.171 66.9204 28.46C67.8303 28.749 68.6717 28.9646 69.424 29.0503C70.1778 29.1361 70.8097 29.0875 71.3199 28.8789C71.4305 28.8337 71.5231 28.7409 71.5545 28.4872C71.5884 28.2135 71.536 27.8144 71.3706 27.3031C71.0427 26.2893 70.3222 24.99 69.3386 23.7011C68.3576 22.4156 67.1354 21.1675 65.8259 20.2448C64.5109 19.3182 63.1468 18.7469 61.8721 18.7469ZM52.3224 27.5632C52.2926 27.7371 52.2653 27.9125 52.2403 28.0893L52.2797 27.8252C52.2934 27.7375 52.3075 27.6502 52.3224 27.5632ZM71.611 26.6382C71.6257 26.6743 71.6401 26.7101 71.6541 26.7458C71.668 26.7814 71.6816 26.8168 71.6948 26.852C71.7213 26.9224 71.7463 26.9919 71.7696 27.0604L71.7335 26.957C71.721 26.9222 71.708 26.8872 71.6948 26.852C71.6816 26.8168 71.668 26.7814 71.6541 26.7458C71.6261 26.6745 71.5967 26.6023 71.5658 26.5292L71.611 26.6382ZM61.3084 26.9972C61.3673 27.0152 61.4264 27.0335 61.4854 27.0519C61.3645 27.0142 61.2437 26.9773 61.1231 26.9414L61.3084 26.9972ZM52.471 26.797C52.4531 26.8795 52.4356 26.9623 52.4189 27.0455L52.4725 26.7902L52.471 26.797ZM70.9971 25.3813L70.9292 25.2618C70.9205 25.2465 70.9114 25.2313 70.9026 25.216C70.9346 25.2713 70.9663 25.3264 70.9971 25.3813ZM52.9475 25.0729C52.9127 25.1749 52.8794 25.2777 52.8466 25.3813C52.8541 25.3576 52.8614 25.3338 52.869 25.3102C52.8946 25.2307 52.9207 25.1515 52.9475 25.0729ZM70.2367 24.1644C70.2649 24.2055 70.2929 24.2465 70.3206 24.2876L70.2367 24.1644C70.2085 24.1233 70.18 24.082 70.1512 24.0409L70.2367 24.1644ZM56.3136 20.0798C56.2424 20.135 56.1721 20.1911 56.1028 20.2485C56.1315 20.2247 56.1605 20.2012 56.1896 20.1778C56.2306 20.1447 56.272 20.1121 56.3136 20.0798Z" fill="#00FF48"/>
<path d="M98.5407 13.5075H104.833V18.5865H98.5407V39.3379C98.5407 40.3972 98.8176 41.0009 99.2368 41.3562C99.6728 41.7257 100.359 41.911 101.358 41.911C102.305 41.911 103.389 41.6701 103.92 41.4926L103.99 41.4692H104.707V46.7146L104.346 46.7908C103.126 47.0484 101.71 47.2425 100.162 47.2425C98.0348 47.2425 96.1241 46.8078 94.7372 45.7172C93.3302 44.6107 92.5335 42.8863 92.5335 40.474V18.5865H87.8142V13.5075H92.5335V3.21912H98.5407V13.5075Z" fill="#00FF48"/>
<path d="M22.3513 37.8618L36.5767 1.00988H44.7058V47.0531H38.384V11.837C37.9929 12.9577 37.5166 14.2987 37.1249 15.3264L37.124 15.3284L37.1233 15.3305L24.6766 47.0531H19.7147L7.26795 15.3305L7.26721 15.3287C6.85409 14.2631 6.38741 12.9525 6.00719 11.8587V47.0531H0V1.00988H8.00243L22.3513 37.8618Z" fill="#00FF48"/>
<path d="M86.1909 47.0531H80.1835V1.00988H86.1909V47.0531Z" fill="#00FF48"/>
<path fill-rule="evenodd" clip-rule="evenodd" d="M161.132 0.441849C163.17 0.441849 164.989 0.877282 166.576 1.7616C168.156 2.60003 169.39 3.79408 170.271 5.33771C171.157 6.84949 171.592 8.61543 171.592 10.6188C171.592 12.5823 171.156 14.3453 170.274 15.8948L170.272 15.8972L170.271 15.8997C169.389 17.4038 168.154 18.5965 166.576 19.4758L166.572 19.4782L166.567 19.4804C164.982 20.3196 163.166 20.7326 161.132 20.7326C159.058 20.7326 157.22 20.3203 155.634 19.4804L155.627 19.4769L155.621 19.473C154.085 18.5929 152.873 17.4006 151.993 15.8997L151.992 15.8972L151.99 15.8948C151.108 14.3453 150.672 12.5823 150.672 10.6188C150.672 8.61933 151.084 6.85662 151.925 5.34648L151.926 5.34455L151.927 5.34276C152.807 3.79852 154.021 2.60203 155.562 1.7616C157.152 0.875778 159.014 0.441849 161.132 0.441849ZM161.195 5.0158C159.215 5.0158 157.853 5.54189 157.005 6.50289C156.132 7.493 155.672 8.84796 155.672 10.6188C155.672 12.2992 156.129 13.6145 157.005 14.6084C157.853 15.5694 159.215 16.0953 161.195 16.0953C163.132 16.0953 164.447 15.5706 165.252 14.6159L165.255 14.6121L165.259 14.6084C166.135 13.6145 166.592 12.2992 166.592 10.6188C166.592 9.45602 166.372 8.47989 165.952 7.67462L165.946 7.66332L165.94 7.65173C165.561 6.81337 164.976 6.17054 164.178 5.71313L164.174 5.71075L164.17 5.70822C163.421 5.25766 162.439 5.0158 161.195 5.0158ZM165.394 15.1363C165.402 15.1273 165.412 15.1186 165.42 15.1095L165.423 15.1065C165.413 15.1166 165.403 15.1263 165.394 15.1363ZM165.669 14.8297L165.689 14.8072C165.7 14.7942 165.71 14.7808 165.721 14.7677C165.704 14.7885 165.687 14.8091 165.669 14.8297ZM151.505 7.59199C151.502 7.60443 151.499 7.61697 151.495 7.62944C151.501 7.60716 151.507 7.58489 151.513 7.56271L151.505 7.59199ZM165.613 6.29973C165.633 6.32248 165.652 6.34538 165.672 6.36854C165.633 6.32218 165.593 6.27668 165.553 6.23196L165.613 6.29973ZM160.271 4.59936C160.266 4.59989 160.26 4.60046 160.254 4.601C160.319 4.59501 160.384 4.58965 160.45 4.58495L160.271 4.59936Z" fill="#00FF48"/>
</svg>
